<?xml version="1.0" encoding="UTF-8" standalone="no"?>
<!-- Generator: Adobe Illustrator 16.0.0, SVG Export Plug-In . SVG Version: 6.00 Build 0)  -->

<svg
   xmlns:dc="http://purl.org/dc/elements/1.1/"
   xmlns:cc="http://creativecommons.org/ns#"
   xmlns:rdf="http://www.w3.org/1999/02/22-rdf-syntax-ns#"
   xmlns:svg="http://www.w3.org/2000/svg"
   xmlns="http://www.w3.org/2000/svg"
   xmlns:sodipodi="http://sodipodi.sourceforge.net/DTD/sodipodi-0.dtd"
   xmlns:inkscape="http://www.inkscape.org/namespaces/inkscape"
   version="1.1"
   x="0px"
   y="0px"
   width="1008px"
   height="1008px"
   viewBox="0 0 1008 1008"
   enable-background="new 0 0 1008 1008"
   xml:space="preserve"
   id="svg2"
   inkscape:version="0.48.4 r9939"
   sodipodi:docname="untv-logo.svg"><metadata
     id="metadata63"><rdf:RDF><cc:Work
         rdf:about=""><dc:format>image/svg+xml</dc:format><dc:type
           rdf:resource="http://purl.org/dc/dcmitype/StillImage" /><dc:title></dc:title></cc:Work></rdf:RDF></metadata><defs
     id="defs61" /><sodipodi:namedview
     pagecolor="#ffffff"
     bordercolor="#666666"
     borderopacity="1"
     objecttolerance="10"
     gridtolerance="10"
     guidetolerance="10"
     inkscape:pageopacity="0"
     inkscape:pageshadow="2"
     inkscape:window-width="1178"
     inkscape:window-height="700"
     id="namedview59"
     showgrid="false"
     inkscape:zoom="0.33110556"
     inkscape:cx="361.51896"
     inkscape:cy="499.94779"
     inkscape:window-x="0"
     inkscape:window-y="24"
     inkscape:window-maximized="0"
     inkscape:current-layer="layer2" /><g
     inkscape:groupmode="layer"
     id="layer1"
     inkscape:label="Layer" /><g
     inkscape:groupmode="layer"
     id="layer2"
     inkscape:label="Layer#1"><g
       id="g3248"><g
         style="fill:#ffffff"
         id="UNTV"
         transform="translate(3.2706878,-7.3140593)"><path
           id="path5"
           d="m 957.951,393.823 c -1.025,4.977 -2.223,9.926 -3.051,14.936 -5.732,34.71 -11.412,69.429 -17.061,104.153 -5.025,30.896 -9.979,61.803 -14.986,92.703 -1.984,12.24 -4.031,24.471 -6.1,36.998 -4.734,0 -9.242,0 -13.75,0 -15.174,0 -30.35,-0.045 -45.523,0.046 -2.469,0.015 -3.457,-0.464 -3.904,-3.258 -5.746,-35.888 -11.723,-71.737 -17.568,-107.607 -5.328,-32.68 -10.547,-65.377 -15.855,-98.06 -2.176,-13.406 -4.463,-26.793 -6.68,-40.193 -0.184,-1.108 -0.213,-2.241 -0.33,-3.529 14.074,0 27.918,0 42.26,0 10.555,67.836 21.119,135.734 31.684,203.633 0.193,-0.021 0.387,-0.041 0.58,-0.062 10.529,-67.71 21.057,-135.419 31.668,-203.65 12.799,0 25.707,0 38.617,0 -10e-4,1.296 -10e-4,2.593 -10e-4,3.89 z"
           clip-rule="evenodd"
           inkscape:connector-curvature="0"
           style="fill:#ffffff;fill-rule:evenodd" /><path
           id="path7"
           d="m 562.725,642.467 c -12.834,0 -25.115,0 -37.699,0 0,-84.064 0,-168.032 0,-252.358 0.967,-0.076 2.068,-0.236 3.168,-0.237 15.176,-0.016 30.352,0.091 45.523,-0.097 3.025,-0.038 4.209,0.854 5.018,3.722 13.238,46.846 26.588,93.661 39.918,140.481 0.336,1.183 0.74,2.346 1.803,3.417 0,-49.053 0,-98.107 0,-147.346 12.664,0 24.938,0 37.461,0 0,84.005 0,167.989 0,252.181 -0.656,0.12 -1.387,0.368 -2.119,0.37 -12.709,0.023 -25.422,-0.073 -38.131,0.092 -2.658,0.034 -3.15,-1.274 -3.73,-3.304 -16.561,-58.112 -33.168,-116.212 -49.771,-174.312 -0.307,-1.071 -0.664,-2.128 -1.439,-3.131 -0.002,60.041 -0.002,120.081 -0.002,180.522 z"
           clip-rule="evenodd"
           inkscape:connector-curvature="0"
           style="fill:#ffffff;fill-rule:evenodd" /><path
           id="path9"
           d="m 371.187,390.005 c 14.247,0 27.962,0 42.056,0 0,1.653 0,3.168 0,4.684 0,62.648 -0.045,125.295 0.088,187.943 0.012,4.847 0.838,9.803 2.059,14.507 1.459,5.622 5.506,9.193 11.137,10.861 5.48,1.623 10.992,1.732 16.467,0.148 8.572,-2.48 12.83,-8.746 13.629,-19.906 0.168,-2.325 0.143,-4.666 0.143,-7 0.008,-62.259 0.008,-124.518 0.008,-186.776 0,-1.401 0,-2.802 0,-4.403 13.275,0 26.293,0 39.67,0 0,0.83 0,1.57 0,2.311 -0.025,65.112 0.199,130.226 -0.234,195.335 -0.121,18.047 -5.812,34.469 -20.891,46.123 -9.977,7.711 -21.645,10.804 -33.984,11.631 -16.172,1.082 -31.896,-0.492 -45.924,-9.555 -13.238,-8.552 -19.976,-21.375 -22.564,-36.509 -1.021,-5.972 -1.576,-12.099 -1.588,-18.154 -0.111,-62.777 -0.068,-125.555 -0.069,-188.333 -0.003,-0.88 -0.003,-1.761 -0.003,-2.907 z"
           clip-rule="evenodd"
           inkscape:connector-curvature="0"
           style="fill:#ffffff;fill-rule:evenodd" /><path
           id="path11"
           d="m 805.877,390.074 c 0,11.858 0,23.595 0,35.732 -14.514,0 -28.953,0 -43.795,0 0,72.419 0,144.438 0,216.632 -14.109,0 -27.811,0 -41.902,0 0,-72.06 0,-144.075 0,-216.362 -14.727,0 -29.068,0 -43.686,0 0,-12.106 0,-23.947 0,-36.002 43.024,0 86.113,0 129.383,0 z"
           clip-rule="evenodd"
           inkscape:connector-curvature="0"
           style="fill:#ffffff;fill-rule:evenodd" /></g><g
         style="fill:#ffffff"
         id="ICON"
         transform="translate(3.2706878,-7.3140593)"><polygon
           id="polygon14"
           points="80.404,432.657 308.108,401.105 308.108,582.135 80.404,579.636 "
           clip-rule="evenodd"
           style="fill:none;fill-rule:evenodd" /><g
           style="fill:#ffffff"
           id="ounBVg.tif"><g
             style="fill:#ffffff"
             id="g17"><path
               id="path19"
               d="m 350.791,388.142 c -7.998,-2.898 -15.896,-6.072 -23.858,-9.068 -1.033,-0.389 -2.271,-0.612 -3.346,-0.45 -25.966,3.926 -51.921,7.923 -77.881,11.887 -7.639,1.167 -15.287,2.275 -23.519,3.498 1.354,-4.009 2.55,-7.501 3.712,-11.004 1.58,-4.761 1.463,-9.694 -1.076,-13.833 -4.792,-7.807 -6.484,-16.364 -6.745,-25.164 -0.201,-6.771 -3.073,-10.616 -9.365,-12.413 -8.529,-2.436 -15.219,-7.477 -20.436,-14.602 -1.446,-1.977 -3.127,-3.781 -4.701,-5.665 h -5.447 c -2.325,2.72 -4.649,5.44 -7.214,8.441 -1.718,-0.654 -4.171,-1.784 -6.735,-2.519 -4.381,-1.254 -9.006,-1.659 -12.486,1.767 -6.405,6.303 -14.291,11.043 -19.368,18.782 -1.814,2.766 -4.491,5.007 -6.96,7.286 -1.089,1.004 -2.564,1.877 -3.996,2.176 -9.346,1.954 -18.707,3.852 -28.111,5.5 -2.97,0.521 -4.336,1.641 -5.09,4.71 -1.654,6.729 -3.938,13.303 -5.915,19.954 -0.399,1.343 -1.104,2.888 -0.78,4.104 1.945,7.322 3.944,14.645 6.355,21.822 1.198,3.564 3.313,6.82 5.082,10.351 -8.203,1.257 -15.98,2.448 -23.366,3.579 v 181.704 c 84.661,1.906 168.635,3.796 252.744,5.689 0.244,4.477 0.465,8.548 0.698,12.818 -84.996,-2.707 -169.434,-5.395 -253.98,-8.088 v 23.626 c 94.232,3.794 188.311,7.583 282.303,11.368 0.165,-0.773 0.262,-1.019 0.264,-1.264 0.542,-83.78 1.072,-167.561 1.649,-251.34 0.012,-1.942 -0.435,-2.929 -2.432,-3.652 z M 167.052,324.997 c -4.612,1.459 -8.194,2.592 -12.141,3.841 -0.177,-2.29 -0.325,-4.232 -0.507,-6.593 3.971,0.863 7.727,1.681 12.648,2.752 z m -21.997,19.34 c 5.582,-2.945 11.037,-6.145 16.436,-9.421 4.373,-2.655 4.576,-2.735 7.806,1.381 8.677,11.06 13.846,23.758 17.368,37.223 0.781,2.982 1.551,5.966 2.324,8.95 -0.348,0.357 -0.695,0.714 -1.043,1.072 -1.094,-0.989 -2.736,-1.775 -3.191,-3.001 -2.596,-6.981 -4.898,-14.07 -7.321,-21.116 -0.544,-1.581 -1.153,-3.14 -1.749,-4.703 -1.854,-4.859 -4.895,-7.571 -10.582,-6.946 -8.739,0.959 -17.525,1.493 -26.293,2.19 -1.904,0.151 -3.814,0.231 -5.86,-0.195 4.042,-1.794 8.2,-3.374 12.105,-5.434 z m 12.213,11.702 c 2.541,-0.369 5.439,-1.002 7.656,-0.157 2.508,0.957 5.611,3.039 6.398,5.337 3.074,8.97 5.373,18.209 7.848,27.379 0.291,1.076 -0.111,2.339 -0.193,3.516 -0.318,0.065 -0.636,0.129 -0.953,0.194 -1.227,-2.651 -2.502,-5.281 -3.652,-7.964 -0.451,-1.054 -0.537,-2.259 -0.93,-3.344 -4.488,-12.388 -5.239,-12.646 -17.176,-12.89 -9.535,-0.195 -19.094,-0.635 -28.574,-1.624 -4.339,-0.453 -8.514,-2.487 -13.377,-3.995 14.897,-2.251 28.915,-4.411 42.953,-6.452 z m -50.612,13.857 c 0.795,-0.382 2.156,-0.33 2.932,0.104 11.222,6.274 23.526,7.176 35.974,7.402 3.241,0.059 6.483,0.044 9.724,0.04 6.506,-0.008 10.223,2.558 12.02,9.021 1.824,6.565 3.143,13.269 4.831,19.875 0.657,2.572 -0.105,4.298 -2.634,4.557 -6.541,0.667 -13.109,1.063 -19.672,1.498 -0.564,0.038 -1.683,-0.479 -1.668,-0.668 0.212,-2.612 0.025,-5.507 1.182,-7.665 0.45,-0.841 4.057,-0.258 6.135,0.146 1.139,0.221 2.146,1.357 3.111,2.195 2.601,2.258 4.612,1.651 6.543,-1.656 -2.547,-1.538 -5.105,-3.083 -8.533,-5.152 h 8.945 c -0.49,-5.859 -4.364,-8.721 -9.174,-7.182 -3.911,1.251 -7.837,2.509 -11.614,4.101 -1.058,0.446 -2.233,2.051 -2.294,3.181 -0.261,4.902 -0.087,9.826 -0.158,14.741 -0.039,2.67 0.97,4.762 3.629,5.204 5.551,0.922 11.146,1.947 16.746,2.087 5.08,0.127 9.156,0.564 11.952,5.76 1.707,3.174 5.078,5.453 7.702,8.134 0.228,-0.252 0.455,-0.504 0.682,-0.757 -1.318,-3.763 -2.586,-7.544 -3.969,-11.282 -1.199,-3.238 -1.104,-6.074 0.969,-9.139 2.125,-3.142 3.412,-6.838 5.24,-10.197 1.133,-2.078 2.591,-3.978 4.253,-6.486 1.429,2.867 2.498,5.015 3.581,7.189 2.979,-2.451 3.028,-2.615 1.39,-6.06 -1.372,-2.885 -3.526,-5.757 0.743,-8.227 0.498,-0.288 0.476,-1.824 0.369,-2.744 -0.354,-3.07 -0.857,-6.124 -1.395,-9.816 3.07,2.011 5.669,3.712 8.379,5.487 0.903,-4.227 -0.939,-6.937 -3.857,-9.18 -3.85,-2.961 -5.76,-6.976 -5.723,-11.733 0.012,-1.524 1.187,-3.038 2.16,-5.341 -3.535,-6.899 -7.987,-14.855 -11.697,-23.143 -1.735,-3.877 -2.229,-8.366 -2.92,-12.637 -0.418,-2.579 1.854,-3.596 3.415,-2.252 3.292,2.832 6.015,6.327 8.97,9.549 -0.478,0.436 -0.956,0.871 -1.435,1.307 -2.639,-2.992 -5.277,-5.983 -7.916,-8.975 l -1.527,1.104 c 1.591,2.721 2.627,6.089 4.89,8.028 4.854,4.161 10.179,7.847 15.649,11.171 2.017,1.225 3.601,2.252 4.081,4.523 2.204,10.43 4.559,20.834 6.408,31.328 0.46,2.616 -0.224,5.763 -1.308,8.265 -4.149,9.576 -3.049,19.247 -0.896,28.893 1.143,5.119 0.816,9.862 -0.725,14.837 -1.12,3.621 -1.247,7.551 -1.793,11.348 -0.258,1.789 -0.1,3.73 -0.75,5.354 -2.224,5.559 -0.82,10.685 0.764,16.132 8.691,29.873 17.099,59.828 25.586,89.76 0.204,0.718 0.209,1.493 0.378,2.789 -2.473,-1.794 -4.539,-3.292 -6.895,-5.001 -1.017,2.884 -1.987,5.64 -2.959,8.396 -0.234,-0.062 -0.469,-0.123 -0.705,-0.184 0.591,-5.077 1.18,-10.154 1.852,-15.933 -5.876,3.562 -11.381,6.76 -16.727,10.205 -2.065,1.332 -3.431,1.283 -5.404,-0.279 -5.474,-4.335 -11.255,-8.279 -16.733,-12.609 -1.502,-1.187 -2.804,-3.03 -3.443,-4.84 -5.027,-14.225 -9.917,-28.499 -14.76,-42.788 -4.471,-13.193 -12.547,-23.216 -25.199,-29.392 -7.584,-3.702 -12.588,-9.595 -15.205,-17.708 -0.93,-2.884 -2.562,-5.554 -3.795,-8.337 -9.896,-9.205 -16.104,-22.12 -20.771,-34.59 -0.01,-0.028 -0.013,-0.054 -0.021,-0.082 -0.064,-0.006 -0.13,-0.011 -0.195,-0.017 -1.553,-8.861 -3.105,-17.723 -4.791,-27.348 2.024,-1.099 4.99,-2.829 8.076,-4.311 z m 201.452,212.239 c -75.574,-0.83 -151.487,-1.663 -227.704,-2.499 V 432.657 c 6.082,-0.847 12.312,-1.715 19.06,-2.654 1.767,12.871 9.128,23.233 14.623,34.39 4.897,9.942 11.491,18.213 23.817,19.051 4.199,0.286 6.16,2.489 7.787,6.457 8.734,21.294 15.994,43.042 21.379,65.416 0.367,1.525 0.354,3.142 0.565,5.179 -7.832,-3.333 -14.976,-6.375 -22.115,-9.415 0.132,0.702 0.144,1.476 0.485,2.054 4.646,7.904 9.285,15.812 14.104,23.61 0.649,1.051 2.28,2.139 3.45,2.132 46.789,-0.301 93.579,-0.726 140.368,-1.142 0.238,-0.002 0.475,-0.111 1.087,-0.265 v -50.256 c -4.629,4.691 -9.802,9.935 -15.064,15.269 2.951,1.638 6.713,3.725 10.964,6.081 -5.107,2.796 -9.922,5.434 -14.971,8.197 3.893,3.874 7.624,7.586 11.355,11.3 0.228,0.201 0.455,0.403 0.682,0.605 -0.385,0.01 -0.771,0.021 -1.156,0.03 -7.226,-3.67 -14.45,-7.341 -21.793,-11.071 -1.129,2.113 -2.137,3.996 -3.385,6.331 -4.703,-7.089 -9.185,-13.846 -13.75,-20.728 -1.33,1.996 -2.602,3.901 -4.066,6.099 -3.326,-10.804 -6.385,-21.325 -9.806,-31.728 -6.37,-19.371 -13.021,-38.648 -19.39,-58.019 -1.553,-4.722 -2.544,-9.637 -3.609,-14.503 -0.216,-0.984 0.1,-2.343 0.667,-3.202 5.567,-8.43 6.54,-17.513 4.14,-27.138 -0.148,-0.599 -0.172,-1.229 -0.301,-2.201 27.423,-3.796 54.668,-7.568 82.576,-11.432 v 181.031 z"
               inkscape:connector-curvature="0"
               style="fill:#ffffff" /><path
               id="path21"
               d="m 232.606,685.673 c -1.422,-0.263 -2.842,-0.737 -4.269,-0.759 -37.58,-0.563 -75.161,-1.08 -112.996,-1.607 0,-3.526 0,-6.939 0,-10.641 29.387,-2.154 58.787,-4.308 88.606,-6.494 -0.778,-6.42 -1.534,-12.645 -2.363,-19.483 18.021,0.553 35.943,1.103 54.178,1.662 0,6.938 0,13.746 0,21.002 8.689,0.854 17.117,1.683 25.875,2.543 0,4.582 0,9.179 0,13.777 -16.343,0 -32.687,0 -49.031,0 z"
               clip-rule="evenodd"
               inkscape:connector-curvature="0"
               style="fill:#ffffff;fill-rule:evenodd" /><path
               id="path23"
               d="m 52.049,410.945 c 4.667,-6.89 9.334,-13.779 14.371,-21.216 2.038,7.847 3.943,15.184 5.951,22.91 -6.963,-0.314 -13.642,-0.615 -20.322,-0.916 0,-0.259 0,-0.518 0,-0.778 z"
               clip-rule="evenodd"
               inkscape:connector-curvature="0"
               style="fill:#ffffff;fill-rule:evenodd" /><path
               id="path25"
               d="m 256.325,378.666 c -6.344,-4.439 -12.688,-8.878 -19.287,-13.496 3.534,-6.408 6.99,-12.673 10.926,-19.809 3.099,11.578 5.948,22.224 8.798,32.87 -0.156,0.136 -0.301,0.281 -0.437,0.435 z"
               clip-rule="evenodd"
               inkscape:connector-curvature="0"
               style="fill:#ffffff;fill-rule:evenodd" /><path
               id="path27"
               d="m 256.762,378.232 c 0.167,0.139 0.335,0.278 0.502,0.417 -0.312,0.005 -0.624,0.01 -0.938,0.016 0.135,-0.153 0.28,-0.298 0.436,-0.433 z"
               clip-rule="evenodd"
               inkscape:connector-curvature="0"
               style="fill:#ffffff;fill-rule:evenodd" /><path
               id="path29"
               d="m 114.314,362.491 c 14.897,-2.251 28.916,-4.411 42.953,-6.452 2.541,-0.369 5.439,-1.002 7.656,-0.157 2.508,0.957 5.611,3.039 6.398,5.337 3.074,8.97 5.373,18.209 7.848,27.379 0.291,1.076 -0.111,2.339 -0.193,3.516 -0.318,0.065 -0.636,0.129 -0.953,0.194 -1.227,-2.651 -2.502,-5.281 -3.652,-7.964 -0.451,-1.054 -0.537,-2.259 -0.93,-3.344 -4.488,-12.388 -5.239,-12.646 -17.176,-12.89 -9.535,-0.195 -19.094,-0.635 -28.574,-1.624 -4.338,-0.453 -8.513,-2.488 -13.377,-3.995 z"
               clip-rule="evenodd"
               inkscape:connector-curvature="0"
               style="fill:none;fill-rule:evenodd" /><path
               id="path31"
               d="m 187.945,383.542 c -1.094,-0.989 -2.736,-1.775 -3.191,-3.001 -2.596,-6.981 -4.898,-14.07 -7.321,-21.116 -0.544,-1.581 -1.153,-3.14 -1.749,-4.703 -1.854,-4.859 -4.895,-7.571 -10.582,-6.946 -8.739,0.959 -17.525,1.493 -26.293,2.19 -1.904,0.151 -3.814,0.231 -5.86,-0.195 4.044,-1.794 8.202,-3.373 12.106,-5.434 5.582,-2.945 11.037,-6.145 16.436,-9.421 4.373,-2.655 4.576,-2.735 7.806,1.381 8.677,11.06 13.846,23.758 17.368,37.223 0.781,2.982 1.551,5.966 2.324,8.95 -0.348,0.357 -0.696,0.715 -1.044,1.072 z"
               clip-rule="evenodd"
               inkscape:connector-curvature="0"
               style="fill:none;fill-rule:evenodd" /><path
               id="path33"
               d="m 167.052,324.997 c -4.612,1.459 -8.194,2.592 -12.141,3.841 -0.177,-2.29 -0.325,-4.232 -0.507,-6.593 3.971,0.863 7.727,1.681 12.648,2.752 z"
               clip-rule="evenodd"
               inkscape:connector-curvature="0"
               style="fill:none;fill-rule:evenodd" /><path
               id="path35"
               d="m 297.3,568.061 c 0.228,0.201 0.455,0.403 0.682,0.605 -0.385,0.01 -0.771,0.021 -1.156,0.03 0.157,-0.212 0.316,-0.424 0.474,-0.635 z"
               clip-rule="evenodd"
               inkscape:connector-curvature="0"
               style="fill:#ffffff;fill-rule:evenodd" /><path
               id="path37"
               d="m 233.319,422.556 c 9.029,-7.289 19.158,-11.421 30.882,-12.463 13.122,-1.167 26.152,-3.386 39.495,-5.184 1.601,18.668 2.533,37.147 -5.691,54.624 -3.022,-5.885 -6.267,-12.201 -10.027,-19.523 0,4.191 0,7.298 0,10.406 -0.27,0.039 -0.541,0.077 -0.812,0.116 -0.931,-4.028 -1.86,-8.056 -2.929,-12.685 -9.41,9.141 -18.551,18.02 -27.692,26.898 -0.239,-0.084 -0.478,-0.167 -0.718,-0.251 1.387,-6.362 2.773,-12.723 4.394,-20.156 -7.06,4.124 -13.22,7.722 -20.293,11.854 5.733,-11.79 11.044,-22.711 16.214,-33.342 -7.633,0 -15.068,0 -22.503,0 -0.109,-0.096 -0.214,-0.194 -0.32,-0.294 z"
               clip-rule="evenodd"
               inkscape:connector-curvature="0"
               style="fill:#ffffff;fill-rule:evenodd" /><path
               id="path39"
               d="m 90.779,493.121 c 2.107,11.016 4.094,21.389 6.079,31.763 -0.285,0.055 -0.57,0.109 -0.855,0.164 -2.696,-6.217 -5.136,-12.562 -8.156,-18.616 -3.44,-6.894 -4.725,-14.006 -4.604,-21.68 0.263,-16.844 0.081,-33.696 0.081,-50.988 4.066,-0.453 8.468,-0.942 13.339,-1.484 -1.412,4.579 -2.547,8.661 -3.942,12.65 -0.919,2.625 -0.614,4.78 0.808,7.217 5.208,8.92 10.179,17.979 14.893,27.588 -3.336,-1.907 -6.671,-3.815 -10.824,-6.191 3.148,10.445 6.078,20.17 9.256,30.712 -5.666,-3.925 -10.613,-7.351 -16.075,-11.135 z"
               clip-rule="evenodd"
               inkscape:connector-curvature="0"
               style="fill:#ffffff;fill-rule:evenodd" /><path
               id="path41"
               d="m 103.212,529.309 c -1.174,5.893 -2.122,10.653 -3.112,15.624 3.621,1.064 7.035,2.068 10.683,3.141 -1.401,5.153 -2.737,10.065 -4.212,15.492 4.278,-2.113 8.113,-4.008 12.104,-5.979 0.414,8.969 -4.168,14.555 -10.792,18.928 -0.404,0.267 -0.965,0.415 -1.454,0.416 -8.251,0.024 -16.502,0.018 -24.822,0.018 0,-11.46 -0.031,-22.562 0.062,-33.66 0.007,-0.816 0.694,-1.964 1.403,-2.385 6.305,-3.731 12.686,-7.331 20.14,-11.595 z"
               clip-rule="evenodd"
               inkscape:connector-curvature="0"
               style="fill:#ffffff;fill-rule:evenodd" /><path
               id="path43"
               d="m 297.69,505.056 c -6.953,0 -13.217,0 -20.066,0 6.558,-5.828 12.686,-11.274 19.205,-17.07 -4.563,-1.16 -8.649,-2.199 -12.734,-3.237 -0.027,-0.21 -0.055,-0.42 -0.082,-0.629 4.283,-0.958 8.567,-1.916 13.369,-2.989 -3.262,-5.454 -6.389,-10.684 -9.697,-16.217 6.094,0.421 11.736,0.811 17.229,1.19 0,17.698 0,35.124 0,52.6 -6.195,1.768 -11.964,3.413 -18.449,5.263 3.841,-6.473 7.343,-12.371 11.225,-18.911 z"
               clip-rule="evenodd"
               inkscape:connector-curvature="0"
               style="fill:#ffffff;fill-rule:evenodd" /><path
               id="path45"
               d="m 262.265,505.063 c -6.064,-1.706 -12.129,-3.413 -18.456,-5.192 3.288,-7.943 6.317,-15.259 9.701,-23.431 3.038,10.073 5.847,19.382 8.655,28.691 l 0.1,-0.068 z"
               clip-rule="evenodd"
               inkscape:connector-curvature="0"
               style="fill:#ffffff;fill-rule:evenodd" /><path
               id="path47"
               d="m 135.718,524.754 c -4.79,0.999 -9.034,1.884 -13.582,2.832 0.626,-7.524 1.239,-14.911 1.957,-23.562 4.143,7.389 7.729,13.783 11.625,20.73 z"
               clip-rule="evenodd"
               inkscape:connector-curvature="0"
               style="fill:#ffffff;fill-rule:evenodd" /><path
               id="path49"
               d="m 262.165,505.132 c 0.16,0.093 0.322,0.185 0.482,0.276 -0.145,0.048 -0.289,0.096 -0.434,0.143 0.017,-0.163 0.033,-0.324 0.05,-0.487 0.002,-0.001 -0.098,0.068 -0.098,0.068 z"
               clip-rule="evenodd"
               inkscape:connector-curvature="0"
               style="fill:#ffffff;fill-rule:evenodd" /><path
               id="path51"
               d="m 233.639,422.85 c -0.265,0.026 -0.53,0.053 -0.795,0.079 0.159,-0.124 0.317,-0.249 0.476,-0.373 0.105,0.1 0.21,0.198 0.319,0.294 z"
               clip-rule="evenodd"
               inkscape:connector-curvature="0"
               style="fill:#ffffff;fill-rule:evenodd" /><path
               id="path53"
               d="m 145.496,550.938 c -0.174,0.05 -0.348,0.099 -0.521,0.149 0.015,-0.159 0.028,-0.317 0.043,-0.476 0.139,0.144 0.277,0.288 0.417,0.432 l 0.061,-0.105 z"
               clip-rule="evenodd"
               inkscape:connector-curvature="0"
               style="fill:#ffffff;fill-rule:evenodd" /><path
               id="path55"
               d="m 183.016,434.86 c 0.208,0.47 0.416,0.94 0.624,1.411 -0.275,0.226 -0.551,0.453 -0.826,0.679 -0.159,-0.444 -0.319,-0.888 -0.479,-1.333 0.227,-0.252 0.454,-0.504 0.681,-0.757 z"
               clip-rule="evenodd"
               inkscape:connector-curvature="0"
               style="fill:#ffffff;fill-rule:evenodd" /></g></g><path
           id="path57"
           d="m 233.953,551.927 c -8.487,-29.932 -16.895,-59.887 -25.586,-89.76 -1.584,-5.447 -2.987,-10.574 -0.764,-16.132 0.65,-1.625 0.492,-3.565 0.75,-5.354 0.546,-3.796 0.673,-7.727 1.793,-11.348 1.541,-4.976 1.867,-9.718 0.725,-14.837 -2.153,-9.646 -3.254,-19.317 0.896,-28.893 1.084,-2.502 1.768,-5.649 1.308,-8.265 -1.85,-10.494 -4.204,-20.898 -6.408,-31.328 -0.48,-2.271 -2.064,-3.298 -4.081,-4.523 -5.471,-3.324 -10.796,-7.01 -15.649,-11.171 -2.263,-1.939 -3.299,-5.308 -4.89,-8.028 0.509,-0.368 1.019,-0.736 1.527,-1.104 2.639,2.991 5.277,5.983 7.916,8.975 0.479,-0.436 0.957,-0.872 1.435,-1.307 -2.955,-3.223 -5.678,-6.717 -8.97,-9.549 -1.562,-1.343 -3.833,-0.326 -3.415,2.252 0.69,4.271 1.185,8.759 2.92,12.637 3.71,8.288 8.162,16.243 11.697,23.143 -0.974,2.303 -2.148,3.817 -2.16,5.341 -0.037,4.757 1.873,8.772 5.723,11.733 2.918,2.244 4.761,4.954 3.857,9.18 -2.71,-1.774 -5.309,-3.476 -8.379,-5.487 0.537,3.692 1.04,6.746 1.395,9.816 0.106,0.92 0.129,2.456 -0.369,2.744 -4.27,2.47 -2.115,5.342 -0.743,8.227 1.639,3.445 1.589,3.609 -1.39,6.06 -1.083,-2.175 -2.152,-4.322 -3.581,-7.189 -1.662,2.508 -3.12,4.408 -4.253,6.486 -1.828,3.358 -3.115,7.055 -5.24,10.197 -2.072,3.064 -2.168,5.901 -0.969,9.139 1.383,3.738 2.65,7.52 3.969,11.282 0.208,0.47 0.416,0.94 0.624,1.411 -0.275,0.226 -0.551,0.453 -0.826,0.679 -0.159,-0.444 -0.319,-0.888 -0.479,-1.333 -2.624,-2.681 -5.995,-4.959 -7.702,-8.134 -2.796,-5.196 -6.872,-5.633 -11.952,-5.76 -5.6,-0.14 -11.195,-1.165 -16.746,-2.087 -2.659,-0.442 -3.668,-2.533 -3.629,-5.204 0.071,-4.915 -0.103,-9.838 0.158,-14.741 0.061,-1.13 1.236,-2.735 2.294,-3.181 3.777,-1.592 7.703,-2.849 11.614,-4.101 4.81,-1.539 8.684,1.323 9.174,7.182 -2.729,0 -5.42,0 -8.945,0 3.428,2.069 5.986,3.614 8.533,5.152 -1.931,3.307 -3.942,3.914 -6.543,1.656 -0.966,-0.838 -1.973,-1.974 -3.111,-2.195 -2.078,-0.404 -5.685,-0.987 -6.135,-0.146 -1.156,2.158 -0.97,5.053 -1.182,7.665 -0.015,0.188 1.104,0.706 1.668,0.668 6.562,-0.435 13.131,-0.831 19.672,-1.498 2.528,-0.259 3.291,-1.985 2.634,-4.557 -1.688,-6.605 -3.007,-13.31 -4.831,-19.875 -1.797,-6.462 -5.514,-9.029 -12.02,-9.021 -3.24,0.004 -6.482,0.02 -9.724,-0.04 -12.447,-0.227 -24.752,-1.128 -35.974,-7.402 -0.775,-0.434 -2.137,-0.486 -2.932,-0.104 -3.086,1.482 -6.053,3.211 -8.078,4.314 1.42,8.108 2.746,15.673 4.057,23.154 v 0.001 0 c 0.245,1.399 0.49,2.797 0.734,4.193 0.209,0.018 0.418,0.036 0.627,0.054 2.249,6.613 7.125,19.39 13.444,26.895 l 1.059,1.373 0.797,0.983 0.956,1.126 4.299,4.676 c 1.206,2.633 2.718,5.18 3.602,7.919 2.617,8.113 7.621,14.006 15.205,17.708 12.652,6.176 20.729,16.198 25.199,29.392 4.843,14.289 9.732,28.563 14.76,42.788 0.64,1.81 1.941,3.653 3.443,4.84 5.479,4.33 11.26,8.274 16.733,12.609 1.974,1.562 3.339,1.611 5.404,0.279 5.346,-3.445 10.851,-6.644 16.727,-10.205 -0.672,5.778 -1.261,10.855 -1.852,15.933 0.236,0.061 0.471,0.122 0.705,0.184 0.972,-2.757 1.942,-5.513 2.959,-8.396 2.355,1.709 4.422,3.207 6.895,5.001 -0.17,-1.299 -0.175,-2.074 -0.379,-2.792 z"
           clip-rule="evenodd"
           inkscape:connector-curvature="0"
           style="fill:none;fill-rule:evenodd" /></g></g></g></svg>